# xmcd CD database file
# Copyright (C) 1993-1998 Ti Kan
#
# Track frame offsets:
#  150
#  13440
#  27595
#  44315
#  59720
#  73857
#  88120
#  105440
#  116855
#  131610
#  144200
#  154925
#  169872
#  187927
#
# Disc length: 2670 seconds
#
# Revision: 1
# Processed by: cddbd v1.4b41PL1 Copyright (c) Steve Scherf et al.
# Submitted via: KiC 2.1 - (C) 1996-1998 Alwin Hoogerdijk
#
DISCID=cc0a6c0e
DTITLE=Sawtooth Mountain Boys - Ocean of Tears
DYEAR=1900
DGENRE=
TTITLE0=Stampede Pass
TTITLE1=Get Gone
TTITLE2=Ocean of Tears
TTITLE3=Lonesome Star
TTITLE4=The Bridge
TTITLE5=When the Nightbirds Cry
TTITLE6=Just Like Every Hurtin' Song
TTITLE7=Steamin'
TTITLE8=There's Something Weighing Heavy on My Mind
TTITLE9=Bringin' Home the Bacon
TTITLE10=I'll Never Try Again
TTITLE11=Big Sky Country
TTITLE12=The Wasted Years
TTITLE13=When It's Time for Me to Die
EXTD=
EXTT0=
EXTT1=
EXTT2=
EXTT3=
EXTT4=
EXTT5=
EXTT6=
EXTT7=
EXTT8=
EXTT9=
EXTT10=
EXTT11=
EXTT12=
EXTT13=
PLAYORDER=
